<?xml version="1.0" ?>
<!-- Created with Inkscape (http://www.inkscape.org/) --><!DOCTYPE svg
  PUBLIC '-//W3C//DTD SVG 1.1//EN'
  'http://www.w3.org/Graphics/SVG/1.1/DTD/svg11.dtd' [
	<!ENTITY stroke_color "none">
	<!ENTITY fill_color "#550000">
]>
<svg height="45.000004" id="svg2994" inkscape:version="0.47 r22583" sodipodi:docname="icono.svg" style="" version="1.1" width="45" xmlns="http://www.w3.org/2000/svg" xmlns:cc="http://creativecommons.org/ns#" xmlns:dc="http://purl.org/dc/elements/1.1/" xmlns:inkscape="http://www.inkscape.org/namespaces/inkscape" xmlns:rdf="http://www.w3.org/1999/02/22-rdf-syntax-ns#" xmlns:sodipodi="http://sodipodi.sourceforge.net/DTD/sodipodi-0.dtd" xmlns:svg="http://www.w3.org/2000/svg">
  <defs id="defs2996" style="">
    <inkscape:perspective id="perspective3002" inkscape:persp3d-origin="372.04724 : 350.78739 : 1" inkscape:vp_x="0 : 526.18109 : 1" inkscape:vp_y="0 : 1000 : 0" inkscape:vp_z="744.09448 : 526.18109 : 1" sodipodi:type="inkscape:persp3d" style=""/>
    <inkscape:perspective id="perspective2985" inkscape:persp3d-origin="0.5 : 0.33333333 : 1" inkscape:vp_x="0 : 0.5 : 1" inkscape:vp_y="0 : 1000 : 0" inkscape:vp_z="1 : 0.5 : 1" sodipodi:type="inkscape:persp3d" style=""/>
  </defs>
  <sodipodi:namedview bordercolor="#666666" borderopacity="1.0" id="base" inkscape:current-layer="layer1" inkscape:cx="-96.28571" inkscape:cy="-40.26315" inkscape:document-units="px" inkscape:pageopacity="0.0" inkscape:pageshadow="2" inkscape:window-height="751" inkscape:window-maximized="1" inkscape:window-width="1280" inkscape:window-x="-4" inkscape:window-y="-3" inkscape:zoom="1.52" pagecolor="#ffffff" showgrid="false" style=""/>
  <metadata id="metadata2999" style="">
    <rdf:RDF style="">
      <cc:Work rdf:about="" style="">
        <dc:format style="">image/svg+xml</dc:format>
        <dc:type rdf:resource="http://purl.org/dc/dcmitype/StillImage" style=""/>
        <dc:title style=""/>
      </cc:Work>
    </rdf:RDF>
  </metadata>
  <g id="layer1" inkscape:groupmode="layer" inkscape:label="Capa 1" style="" transform="translate(-291.78571,-267.00504)">
    <path d="m 311.9743,273.60095 0,3.40526 5.67545,0 0,-3.40526 -5.67545,0 z" id="rect3486-6-1" style="fill:&fill_color;;fill-opacity:1;stroke:&stroke_color;"/>
    <path d="m 300.71803,273.60095 c -1.62451,0 -2.93232,1.30781 -2.93232,2.9323 l 0,25.53947 c 0,1.62451 1.30781,2.93232 2.93232,2.93232 l 28.188,0 c 1.6245,0 2.93231,-1.30781 2.93231,-2.93232 l 0,-25.53947 c 0,-1.62449 -1.30781,-2.9323 -2.93231,-2.9323 l -5.58085,0 0,3.40526 4.20929,0 c 0.81334,0 1.46615,0.902 1.46615,2.01005 l 0,20.57346 c 0,1.10805 -0.65281,2.01006 -1.46615,2.01006 l -25.44489,0 c -0.81334,0 -1.46615,-0.90201 -1.46615,-2.01006 l 0,-20.57346 c 0,-1.10805 0.65281,-2.01005 1.46615,-2.01005 l 4.20929,0 0,-3.40526 -5.58084,0 z" id="path4578" style="fill:&fill_color;;fill-opacity:1;stroke:&stroke_color;"/>
    <rect height="8.7023392" id="rect3478-3" ry="1.4188596" style="fill:&fill_color;;fill-opacity:1;stroke:&stroke_color;" width="2.8377192" x="307.71774" y="270.95239"/>
    <rect height="8.7023392" id="rect3480-5" ry="1.4188596" style="fill:&fill_color;;fill-opacity:1;stroke:&stroke_color;" width="2.8377192" x="319.0686" y="270.95239"/>
    <path d="m 312.58486,300.35863 -7.27717,-6.98181 c -0.36311,-0.34839 -0.28013,-1.28719 -0.10464,-1.7467 0.17682,-0.46302 0.79012,-1.01825 1.27459,-1.15389 0.44971,-0.1259 1.04776,-0.07 1.64304,0.15385 l 4.79514,3.88523 7.62516,-12.13652 c 0.86338,-0.92092 2.17023,-0.97122 3.27812,-0.1262 0.73624,0.56156 1.04434,1.92764 0.40377,2.8764 l -10.29808,15.2525 c -0.24673,0.36542 -0.87194,0.23306 -1.33993,-0.0229 z" id="path3668" sodipodi:nodetypes="cssscccsssc" style="fill:&fill_color;;fill-opacity:1"/>
  </g>
</svg>