<?xml version="1.0" ?>
<!DOCTYPE svg  PUBLIC '-//W3C//DTD SVG 1.1//EN'
  'http://www.w3.org/Graphics/SVG/1.1/DTD/svg11.dtd' [
	<!ENTITY stroke_color "#000000">
	<!ENTITY fill_color "#FFFFFF">
]>
<!-- Created with Inkscape (http://www.inkscape.org/) -->

<svg
   xmlns:dc="http://purl.org/dc/elements/1.1/"
   xmlns:cc="http://creativecommons.org/ns#"
   xmlns:rdf="http://www.w3.org/1999/02/22-rdf-syntax-ns#"
   xmlns:svg="http://www.w3.org/2000/svg"
   xmlns="http://www.w3.org/2000/svg"
   xmlns:sodipodi="http://sodipodi.sourceforge.net/DTD/sodipodi-0.dtd"
   xmlns:inkscape="http://www.inkscape.org/namespaces/inkscape"
   width="55"
   height="55"
   id="svg2994"
   version="1.1"
   inkscape:version="0.47 r22583"
   sodipodi:docname="icono2.svg">
  <defs
     id="defs2996">
    <inkscape:perspective
       sodipodi:type="inkscape:persp3d"
       inkscape:vp_x="0 : 526.18109 : 1"
       inkscape:vp_y="0 : 1000 : 0"
       inkscape:vp_z="744.09448 : 526.18109 : 1"
       inkscape:persp3d-origin="372.04724 : 350.78739 : 1"
       id="perspective3002" />
    <inkscape:perspective
       id="perspective2985"
       inkscape:persp3d-origin="0.5 : 0.33333333 : 1"
       inkscape:vp_z="1 : 0.5 : 1"
       inkscape:vp_y="0 : 1000 : 0"
       inkscape:vp_x="0 : 0.5 : 1"
       sodipodi:type="inkscape:persp3d" />
  </defs>
  <sodipodi:namedview
     id="base"
     pagecolor="#ffffff"
     bordercolor="#666666"
     borderopacity="1.0"
     inkscape:pageopacity="0"
     inkscape:pageshadow="2"
     inkscape:zoom="4.64"
     inkscape:cx="-5.3017241"
     inkscape:cy="19.99403"
     inkscape:document-units="px"
     inkscape:current-layer="g2818"
     showgrid="false"
     inkscape:window-width="1280"
     inkscape:window-height="750"
     inkscape:window-x="-4"
     inkscape:window-y="-4"
     inkscape:window-maximized="1" />
  <metadata
     id="metadata2999">
    <rdf:RDF>
      <cc:Work
         rdf:about="">
        <dc:format>image/svg+xml</dc:format>
        <dc:type
           rdf:resource="http://purl.org/dc/dcmitype/StillImage" />
        <dc:title />
      </cc:Work>
    </rdf:RDF>
  </metadata>
  <g
     inkscape:label="Capa 1"
     inkscape:groupmode="layer"
     id="layer1"
     transform="translate(-297.43606,-250.90015)">
    <g
       id="g2818"
       style="fill:&fill_color;;stroke:&stroke_color;;stroke-opacity:1"
       transform="translate(0.6993007,0)">
      <path
         id="path3668"
         style="fill:&fill_color;;stroke:&stroke_color;;stroke-opacity:1"
         d="m 321.18103,293.06722 -9.36937,-9.13247 c -0.4675,-0.4557 -0.36067,-1.68369 -0.13472,-2.28475 0.22765,-0.60564 1.01728,-1.33191 1.64104,-1.50933 0.579,-0.16468 1.34899,-0.0916 2.11541,0.20124 l 6.17376,5.08203 1.92194,-3.10783 7.89547,-12.7672 c 1.1116,-1.2046 2.79417,-1.27039 4.22058,-0.16507 0.94792,0.73454 1.3446,2.52142 0.51986,3.76244 l -13.2588,19.95085 c -0.31767,0.47798 -1.12263,0.30485 -1.72517,-0.03 l 0,5e-5 z m 10.17462,-38.46449 c 1.01204,0 1.82679,0.82774 1.82679,1.85593 l 0,7.67114 c 0,1.02819 -0.81475,1.85593 -1.82679,1.85593 -1.01204,0 -1.82678,-0.82774 -1.82678,-1.85593 l 0,-7.67114 c 0,-1.02819 0.81474,-1.85593 1.82678,-1.85593 z m -14.61426,0 c 1.01204,0 1.82679,0.82774 1.82679,1.85593 l 0,7.67114 c 0,1.02819 -0.81475,1.85593 -1.82679,1.85593 -1.01204,0 -1.82678,-0.82774 -1.82678,-1.85593 l 0,-7.67114 c 0,-1.02819 0.81474,-1.85593 1.82678,-1.85593 z m -10.83893,3.46443 c -2.09156,0 -3.77536,1.71067 -3.77536,3.83556 l 0,33.4066 c 0,2.12492 1.6838,3.83559 3.77536,3.83559 l 36.29212,0 c 2.09155,0 3.77535,-1.71067 3.77535,-3.83559 l 0,-33.4066 c 0,-2.12489 -1.6838,-3.83556 -3.77535,-3.83556 l -7.18536,0 0,4.45421 5.41947,0 c 1.04718,0 1.88767,1.17985 1.88767,2.62923 l 0,26.91086 c 0,1.44937 -0.84049,2.62924 -1.88767,2.62924 l -32.76035,0 c -1.04718,0 -1.88767,-1.17987 -1.88767,-2.62924 l 0,-26.91086 c 0,-1.44938 0.84049,-2.62923 1.88767,-2.62923 l 5.41947,0 0,-4.45421 -7.18535,0 z m 14.49248,0 0,4.45421 7.30715,0 0,-4.45421 -7.30715,0 z"
         sodipodi:nodetypes="ccssccccscccccccsccccccsccccccccccccccccccccccccccccc" />
    </g>
  </g>
</svg>
